#Comment line ignore any data following # character 
#Hierarchical Translation and Rotation (.htr) file 
[Header]	
#Header keywords are followed by a single value 
FileType HTR		#Single word string
DataType HTRS		#Translation followed by rotation and scale data
FileVersion 1		#integer
NumSegments 25		#integer
NumFrames 5		#integer
DataFrameRate 30		#integer, data frame rate in this file
EulerRotationOrder ZYX
CalibrationUnits mm
RotationUnits Degrees
GlobalAxisofGravity Y
BoneLengthAxis Y
ScaleFactor 1.00
[SegmentNames&Hierarchy]
#CHILD	PARENT
BN_Tick_Root GLOBAL
BN_Torso BN_Tick_Root
BN_L_Leg_Front01 BN_Torso
BN_L_Leg_Rear01 BN_Torso
BN_MetalTop BN_Torso
BN_Neck BN_Torso
BN_R_Leg_Front01 BN_Torso
BN_R_Leg_Rear01 BN_Torso
BN_Sack BN_Torso
BN_L_Leg_Front02 BN_L_Leg_Front01
BN_L_Leg_Front03 BN_L_Leg_Front02
BN_L_Leg_Rear02 BN_L_Leg_Rear01
BN_L_Leg_Rear03 BN_L_Leg_Rear02
BN_Head BN_Neck
BN_Needle BN_Head
BN_R_Leg_Front02 BN_R_Leg_Front01
BN_R_Leg_Front03 BN_R_Leg_Front02
BN_R_Leg_Rear02 BN_R_Leg_Rear01
BN_R_Leg_Rear03 BN_R_Leg_Rear02
BN_SackDef01 BN_Sack
BN_SackDef02 BN_Sack
BN_SackDef03 BN_Sack
BN_SackDef04 BN_Sack
BN_SackDef05 BN_Sack
BN_SackDef06 BN_Sack
[BasePosition]
#SegmentName Tx, Ty, Tz, Rx, Ry, Rz, BoneLength
BN_Tick_Root 0.000000 0.000000 0.000000 -90.000000 0.000000 0.000000 10.000000 
BN_Torso 0.000000 0.000000 0.000000 0.000000 0.000000 0.000000 10.000000 
BN_L_Leg_Front01 0.000000 0.000000 0.000000 0.000000 0.000000 0.000000 10.000000 
BN_L_Leg_Rear01 0.000000 0.000000 0.000000 0.000000 0.000000 0.000000 10.000000 
BN_MetalTop 0.000000 0.000000 0.000000 0.000000 0.000000 0.000000 10.000000 
BN_Neck 0.000000 0.000000 0.000000 0.000000 0.000000 0.000000 10.000000 
BN_R_Leg_Front01 0.000000 0.000000 0.000000 0.000000 0.000000 0.000000 10.000000 
BN_R_Leg_Rear01 0.000000 0.000000 0.000000 0.000000 0.000000 0.000000 10.000000 
BN_Sack 0.000000 0.000000 0.000000 0.000000 0.000000 0.000000 10.000000 
BN_L_Leg_Front02 0.000000 0.000000 0.000000 0.000000 0.000000 0.000000 10.000000 
BN_L_Leg_Front03 0.000000 0.000000 0.000000 0.000000 0.000000 0.000000 10.000000 
BN_L_Leg_Rear02 0.000000 0.000000 0.000000 0.000000 0.000000 0.000000 10.000000 
BN_L_Leg_Rear03 0.000000 0.000000 0.000000 0.000000 0.000000 0.000000 10.000000 
BN_Head 0.000000 0.000000 0.000000 0.000000 0.000000 0.000000 10.000000 
BN_Needle 0.000000 0.000000 0.000000 0.000000 0.000000 0.000000 10.000000 
BN_R_Leg_Front02 0.000000 0.000000 0.000000 0.000000 0.000000 0.000000 10.000000 
BN_R_Leg_Front03 0.000000 0.000000 0.000000 0.000000 0.000000 0.000000 10.000000 
BN_R_Leg_Rear02 0.000000 0.000000 0.000000 0.000000 0.000000 0.000000 10.000000 
BN_R_Leg_Rear03 0.000000 0.000000 0.000000 0.000000 0.000000 0.000000 10.000000 
BN_SackDef01 0.000000 0.000000 0.000000 0.000000 0.000000 0.000000 10.000000 
BN_SackDef02 0.000000 0.000000 0.000000 0.000000 0.000000 0.000000 10.000000 
BN_SackDef03 0.000000 0.000000 0.000000 0.000000 0.000000 0.000000 10.000000 
BN_SackDef04 0.000000 0.000000 0.000000 0.000000 0.000000 0.000000 10.000000 
BN_SackDef05 0.000000 0.000000 0.000000 0.000000 0.000000 0.000000 10.000000 
BN_SackDef06 0.000000 0.000000 0.000000 0.000000 0.000000 0.000000 10.000000 
#Beginning of Data. Separated by tabs
#Fr	Tx	Ty	Tz	Rx	Ry	Rz	SF
[BN_Tick_Root]
30 0.000000 0.000000 0.000000 0.000000 0.000000 -0.000020 0.000000
31 0.000000 0.000000 0.000000 0.000000 0.000000 -0.000020 0.000000
32 0.000000 0.000000 0.000000 0.000000 0.000000 -0.000020 0.000000
33 0.000000 0.000000 0.000000 0.000000 0.000000 -0.000020 0.000000
34 0.000000 0.000000 0.000000 0.000000 0.000000 -0.000020 0.000000
[BN_Torso]
30 3.553029 6.468788 98.113358 -26.445877 -30.317915 3.335792 98.390549
31 3.547990 6.603702 100.147354 -25.138416 -30.520355 2.154768 100.427528
32 3.540561 6.802524 103.145226 -23.522554 -30.788441 0.699133 103.429916
33 3.532393 7.021106 106.441177 -21.895025 -31.020947 -0.768551 106.730965
34 3.524225 7.239688 109.737129 -20.214375 -31.300274 -2.280782 110.032135
[BN_L_Leg_Front01]
30 -68.477791 10.734189 -26.804373 -51.529053 -19.044724 134.652115 74.316254
31 -68.477791 10.734189 -26.804373 -51.249886 -18.026123 135.749481 74.316254
32 -68.477791 10.734189 -26.804373 -50.889339 -16.843843 137.059021 74.316254
33 -68.477791 10.734189 -26.804373 -50.447075 -15.605041 138.522812 74.316254
34 -68.477791 10.734189 -26.804373 -49.974823 -14.377488 139.987991 74.316254
[BN_L_Leg_Rear01]
30 -72.133743 -73.994843 -18.268616 28.626987 10.158447 -153.113449 104.939293
31 -72.133743 -73.994843 -18.268616 29.312334 10.248788 -151.902878 104.939293
32 -72.133743 -73.994843 -18.268616 30.126759 10.294017 -150.391098 104.939293
33 -72.133743 -73.994843 -18.268616 30.942198 10.318078 -148.878677 104.939293
34 -72.133743 -73.994843 -18.268616 31.725782 10.250113 -147.302002 104.939293
[BN_MetalTop]
30 0.000008 13.737477 26.403606 104.743439 -27.330379 -109.341225 29.763546
31 0.000008 13.737477 26.403606 106.019234 -28.782814 -108.427582 29.763546
32 0.000008 13.737477 26.403606 107.822975 -31.396290 -107.424622 29.763546
33 0.000008 13.737477 26.403606 108.716606 -32.803867 -106.946747 29.763546
34 0.000008 13.737477 26.403606 108.029259 -31.761446 -107.417427 29.763546
[BN_Neck]
30 0.000014 95.233284 10.002091 -148.348770 -29.408243 89.999939 95.757088
31 0.000014 95.233284 10.002091 -148.348770 -29.408243 89.999939 95.757088
32 0.000014 95.233284 10.002091 -148.348770 -29.408243 89.999939 95.757088
33 0.000014 95.233284 10.002091 -148.348770 -29.408243 89.999939 95.757088
34 0.000014 95.233284 10.002091 -148.348770 -29.408243 89.999939 95.757088
[BN_R_Leg_Front01]
30 68.477768 10.734107 -26.804314 100.170334 32.372425 62.559330 74.316193
31 68.477768 10.734107 -26.804314 99.647926 33.166622 63.633808 74.316193
32 68.477768 10.734107 -26.804314 99.081215 34.144588 64.930214 74.316193
33 68.477768 10.734107 -26.804314 98.574287 35.255680 66.380165 74.316193
34 68.477768 10.734107 -26.804314 98.095078 36.377373 67.838860 74.316193
[BN_R_Leg_Rear01]
30 72.133751 -73.994873 -18.268644 -85.863251 72.919418 -63.243202 104.939331
31 72.133751 -73.994873 -18.268644 -88.552757 71.393005 -65.913635 104.939331
32 72.133751 -73.994873 -18.268644 -90.964363 69.623344 -68.184563 104.939331
33 72.133751 -73.994873 -18.268644 -92.623795 68.019707 -69.314491 104.939331
34 72.133751 -73.994873 -18.268644 -93.375633 66.992355 -68.951691 104.939331
[BN_Sack]
30 -0.000000 -78.024918 33.657791 86.958496 -12.961477 -97.094231 84.974907
31 -0.000000 -78.024918 33.657791 86.958496 -12.961477 -97.094231 84.974907
32 -0.000000 -78.024918 33.657791 86.958496 -12.961477 -97.094231 84.974907
33 -0.000000 -78.024918 33.657791 86.958504 -12.961475 -97.094231 84.974907
34 -0.000000 -78.024918 33.657791 86.958496 -12.961477 -97.094231 84.974907
[BN_L_Leg_Front02]
30 142.805023 -0.000015 -0.000104 0.183235 0.296967 -92.703934 142.805023
31 142.805023 -0.000015 -0.000104 0.183235 0.296967 -92.703934 142.805023
32 142.805023 -0.000015 -0.000104 0.183235 0.296967 -92.703934 142.805023
33 142.805023 -0.000015 -0.000104 0.183235 0.296967 -92.703934 142.805023
34 142.805023 -0.000015 -0.000104 0.183235 0.296967 -92.703934 142.805023
[BN_L_Leg_Front03]
30 124.143021 -0.000045 0.000007 0.353362 -0.441911 100.329872 124.143021
31 124.143021 -0.000045 0.000007 0.353362 -0.441911 100.329872 124.143021
32 124.143021 -0.000045 0.000007 0.353362 -0.441911 100.329872 124.143021
33 124.143021 -0.000045 0.000007 0.353362 -0.441911 100.329872 124.143021
34 124.143021 -0.000045 0.000007 0.353362 -0.441911 100.329872 124.143021
[BN_L_Leg_Rear02]
30 139.939041 0.000075 -0.000022 0.143457 -0.186082 75.574715 139.939041
31 139.939041 0.000075 -0.000022 0.143457 -0.186082 75.574715 139.939041
32 139.939041 0.000075 -0.000022 0.143457 -0.186082 75.574715 139.939041
33 139.939041 0.000075 -0.000022 0.143457 -0.186082 75.574715 139.939041
34 139.939041 0.000075 -0.000022 0.143457 -0.186082 75.574715 139.939041
[BN_L_Leg_Rear03]
30 142.839615 0.000179 -0.000060 0.000003 -0.000003 -88.940514 142.839615
31 142.839615 0.000179 -0.000060 0.000003 -0.000003 -88.940514 142.839615
32 142.839615 0.000179 -0.000060 0.000003 -0.000003 -88.940514 142.839615
33 142.839615 0.000179 -0.000060 0.000003 -0.000003 -88.940514 142.839615
34 142.839615 0.000179 -0.000060 0.000003 -0.000003 -88.940514 142.839615
[BN_Head]
30 57.062447 -0.000030 0.000000 31.760077 29.789436 -33.763454 57.062447
31 57.062447 -0.000030 0.000000 31.760077 29.789436 -33.763454 57.062447
32 57.062447 -0.000030 0.000000 31.760077 29.789436 -33.763454 57.062447
33 57.062447 -0.000030 0.000000 31.760077 29.789436 -33.763454 57.062447
34 57.062447 -0.000030 0.000000 31.760077 29.789436 -33.763454 57.062447
[BN_Needle]
30 33.915161 69.677544 -0.000060 0.000003 0.000030 87.896805 77.493217
31 33.915161 69.677544 -0.000060 0.000003 0.000030 87.896805 77.493217
32 33.915161 69.677544 -0.000060 0.000003 0.000030 87.896805 77.493217
33 33.915161 69.677544 -0.000060 0.000003 0.000030 87.896805 77.493217
34 33.915161 69.677544 -0.000060 0.000003 0.000030 87.896805 77.493217
[BN_R_Leg_Front02]
30 142.804947 -0.000060 0.000060 -0.193036 0.296610 92.706657 142.804947
31 142.804947 -0.000060 0.000060 -0.193036 0.296610 92.706657 142.804947
32 142.804947 -0.000060 0.000060 -0.193036 0.296610 92.706657 142.804947
33 142.804947 -0.000060 0.000060 -0.193036 0.296610 92.706657 142.804947
34 142.804947 -0.000060 0.000060 -0.193036 0.296610 92.706657 142.804947
[BN_R_Leg_Front03]
30 124.143005 -0.000060 -0.000156 -0.353343 -0.441338 -100.329697 124.143005
31 124.143005 -0.000060 -0.000156 -0.353343 -0.441338 -100.329697 124.143005
32 124.143005 -0.000060 -0.000156 -0.353343 -0.441338 -100.329697 124.143005
33 124.143005 -0.000060 -0.000156 -0.353343 -0.441338 -100.329697 124.143005
34 124.143005 -0.000060 -0.000156 -0.353343 -0.441338 -100.329697 124.143005
[BN_R_Leg_Rear02]
30 139.939011 -0.000149 0.000015 -0.130192 -0.173712 -75.585640 139.939011
31 139.939011 -0.000149 0.000015 -0.130192 -0.173712 -75.585640 139.939011
32 139.939011 -0.000149 0.000015 -0.130192 -0.173712 -75.585640 139.939011
33 139.939011 -0.000149 0.000015 -0.130192 -0.173712 -75.585640 139.939011
34 139.939011 -0.000149 0.000015 -0.130192 -0.173712 -75.585640 139.939011
[BN_R_Leg_Rear03]
30 142.839417 0.000075 0.000119 0.000002 0.000017 88.940636 142.839417
31 142.839417 0.000075 0.000119 0.000002 0.000017 88.940636 142.839417
32 142.839417 0.000075 0.000119 0.000002 0.000017 88.940636 142.839417
33 142.839417 0.000075 0.000119 0.000002 0.000017 88.940636 142.839417
34 142.839417 0.000075 0.000119 0.000002 0.000017 88.940636 142.839417
[BN_SackDef01]
30 249.782272 -3.760844 42.949425 -128.408218 -44.374973 -11.740845 253.475800
31 249.782272 -3.760844 42.949425 -128.408218 -44.374973 -11.740845 253.475800
32 249.782272 -3.760844 42.949425 -128.408218 -44.374973 -11.740845 253.475800
33 249.782272 -3.760844 42.949425 -128.408218 -44.374973 -11.740845 253.475800
34 249.782272 -3.760844 42.949425 -128.408218 -44.374973 -11.740845 253.475800
[BN_SackDef02]
30 138.789795 -62.131748 45.674385 32.077126 -27.375721 -88.781525 158.773758
31 138.789795 -62.131748 45.674385 32.077126 -27.375721 -88.781525 158.773758
32 138.789795 -62.131748 45.674385 32.077126 -27.375721 -88.781525 158.773758
33 138.789795 -62.131748 45.674385 32.077126 -27.375721 -88.781525 158.773758
34 138.789795 -62.131748 45.674385 32.077126 -27.375721 -88.781525 158.773758
[BN_SackDef03]
30 249.782272 -3.760785 -42.949661 18.144459 44.375008 -11.740894 253.475845
31 249.782272 -3.760785 -42.949661 18.144459 44.375008 -11.740894 253.475845
32 249.782272 -3.760785 -42.949661 18.144459 44.375008 -11.740894 253.475845
33 249.782272 -3.760785 -42.949661 18.144459 44.375008 -11.740894 253.475845
34 249.782272 -3.760785 -42.949661 18.144459 44.375008 -11.740894 253.475845
[BN_SackDef04]
30 138.789780 -62.131645 -45.674473 146.059982 27.375723 -88.781555 158.773743
31 138.789780 -62.131645 -45.674473 146.059982 27.375723 -88.781555 158.773743
32 138.789780 -62.131645 -45.674473 146.059982 27.375723 -88.781555 158.773743
33 138.789780 -62.131645 -45.674473 146.059982 27.375723 -88.781555 158.773743
34 138.789780 -62.131645 -45.674473 146.059982 27.375723 -88.781555 158.773743
[BN_SackDef05]
30 118.790161 46.167137 -63.831196 0.155741 51.314110 90.605110 142.537460
31 118.790161 46.167137 -63.831196 0.155741 51.314110 90.605110 142.537460
32 118.790161 46.167137 -63.831196 0.155741 51.314110 90.605110 142.537460
33 118.790161 46.167137 -63.831196 0.155741 51.314110 90.605110 142.537460
34 118.790161 46.167137 -63.831196 0.155741 51.314110 90.605110 142.537460
[BN_SackDef06]
30 118.790207 46.167194 63.831219 152.058487 -51.314072 90.605019 142.537537
31 118.790207 46.167194 63.831219 152.058487 -51.314072 90.605019 142.537537
32 118.790207 46.167194 63.831219 152.058487 -51.314072 90.605019 142.537537
33 118.790207 46.167194 63.831219 152.058487 -51.314072 90.605019 142.537537
34 118.790207 46.167194 63.831219 152.058487 -51.314072 90.605019 142.537537
